<svg xmlns="http://www.w3.org/2000/svg" xmlns:xlink="http://www.w3.org/1999/xlink" width="1587" zoomAndPan="magnify" viewBox="0 0 1190.25 1683.749949" height="2245" preserveAspectRatio="xMidYMid meet" version="1.0"><defs><clipPath id="74e150ca41"><path d="M 0 1495.636719 L 1189.5 1495.636719 L 1189.5 1683.09375 L 0 1683.09375 Z M 0 1495.636719 " clip-rule="nonzero"/></clipPath><clipPath id="9b29ca9500"><path d="M 420.539062 1433.585938 L 777.480469 1433.585938 L 777.480469 1683.09375 L 420.539062 1683.09375 Z M 420.539062 1433.585938 " clip-rule="nonzero"/></clipPath><clipPath id="95dd5066c2"><path d="M 599.011719 1433.585938 C 500.445312 1433.585938 420.539062 1513.492188 420.539062 1612.058594 C 420.539062 1710.625 500.445312 1790.527344 599.011719 1790.527344 C 697.578125 1790.527344 777.480469 1710.625 777.480469 1612.058594 C 777.480469 1513.492188 697.578125 1433.585938 599.011719 1433.585938 Z M 599.011719 1433.585938 " clip-rule="nonzero"/></clipPath><clipPath id="f5ba6ee7b5"><path d="M 844 1574.136719 L 875 1574.136719 L 875 1608 L 844 1608 Z M 844 1574.136719 " clip-rule="nonzero"/></clipPath><clipPath id="24692d99e7"><path d="M 847 1599 L 884.101562 1599 L 884.101562 1627 L 847 1627 Z M 847 1599 " clip-rule="nonzero"/></clipPath><clipPath id="04c3e20cc2"><path d="M 836 1606 L 862 1606 L 862 1644.675781 L 836 1644.675781 Z M 836 1606 " clip-rule="nonzero"/></clipPath><clipPath id="37f4584fef"><path d="M 873 1595 L 911.890625 1595 L 911.890625 1633.984375 L 873 1633.984375 Z M 873 1595 " clip-rule="nonzero"/></clipPath><clipPath id="46568e342e"><path d="M 499.914062 1465.046875 L 698.171875 1465.046875 L 698.171875 1663.304688 L 499.914062 1663.304688 Z M 499.914062 1465.046875 " clip-rule="nonzero"/></clipPath><clipPath id="41ca5ea48a"><path d="M 1042.589844 1534.054688 L 1129 1534.054688 L 1129 1644.671875 L 1042.589844 1644.671875 Z M 1042.589844 1534.054688 " clip-rule="nonzero"/></clipPath><clipPath id="3197ee5625"><path d="M 92 1533.769531 L 147 1533.769531 L 147 1592 L 92 1592 Z M 92 1533.769531 " clip-rule="nonzero"/></clipPath><clipPath id="f08b0ec8a9"><path d="M 68.5625 1591 L 170 1591 L 170 1644.921875 L 68.5625 1644.921875 Z M 68.5625 1591 " clip-rule="nonzero"/></clipPath><clipPath id="42dccfc4bc"><path d="M 283.84375 1534.054688 L 385.914062 1534.054688 L 385.914062 1644.671875 L 283.84375 1644.671875 Z M 283.84375 1534.054688 " clip-rule="nonzero"/></clipPath></defs><g clip-path="url(#74e150ca41)"><path fill="#a28fb4" d="M 0 1495.636719 L 1190.105469 1495.636719 L 1190.105469 1683.125 L 0 1683.125 Z M 0 1495.636719 " fill-opacity="1" fill-rule="nonzero"/></g><g clip-path="url(#9b29ca9500)"><g clip-path="url(#95dd5066c2)"><path fill="#a28fb4" d="M 420.539062 1433.585938 L 777.480469 1433.585938 L 777.480469 1790.527344 L 420.539062 1790.527344 Z M 420.539062 1433.585938 " fill-opacity="1" fill-rule="nonzero"/></g></g><g clip-path="url(#f5ba6ee7b5)"><path fill="#e0c3d4" d="M 860.582031 1574.285156 L 860.082031 1574.296875 C 858.765625 1574.359375 857.546875 1574.664062 856.425781 1575.214844 L 854.914062 1576.148438 C 853.925781 1576.839844 852.980469 1577.667969 852.078125 1578.632812 L 850.757812 1580.179688 C 849.898438 1581.277344 849.078125 1582.515625 848.304688 1583.886719 C 847.53125 1585.261719 846.796875 1586.769531 846.109375 1588.414062 L 845.109375 1590.988281 L 844.613281 1592.773438 C 844.335938 1593.96875 844.160156 1595.175781 844.089844 1596.390625 L 844.058594 1598.222656 C 844.09375 1599.449219 844.230469 1600.6875 844.46875 1601.933594 L 844.90625 1603.808594 C 845.25 1605.066406 845.699219 1606.335938 846.25 1607.613281 L 856.003906 1602.78125 L 859.34375 1602.460938 L 862.359375 1601.773438 L 865.050781 1600.71875 L 867.414062 1599.296875 L 869.449219 1597.507812 L 871.164062 1595.351562 L 872.550781 1592.828125 L 873.609375 1589.9375 L 874.34375 1586.679688 L 874.304688 1585.316406 C 874.226562 1584.429688 874.054688 1583.585938 873.785156 1582.777344 C 873.511719 1581.972656 873.140625 1581.207031 872.675781 1580.480469 C 871.742188 1579.03125 870.414062 1577.742188 868.699219 1576.613281 C 867.355469 1575.925781 866.074219 1575.386719 864.859375 1575.003906 C 863.910156 1574.628906 862.484375 1574.390625 860.582031 1574.285156 " fill-opacity="1" fill-rule="nonzero"/></g><g clip-path="url(#24692d99e7)"><path fill="#e0c3d4" d="M 883.359375 1609.121094 L 883.195312 1608.652344 C 882.726562 1607.417969 882.058594 1606.359375 881.1875 1605.464844 L 879.828125 1604.320312 C 878.867188 1603.59375 877.785156 1602.953125 876.589844 1602.394531 L 874.707031 1601.617188 C 873.390625 1601.140625 871.960938 1600.75 870.414062 1600.4375 C 868.863281 1600.128906 867.199219 1599.898438 865.417969 1599.753906 L 862.65625 1599.597656 L 860.800781 1599.679688 C 859.578125 1599.785156 858.375 1599.992188 857.191406 1600.300781 L 855.4375 1600.839844 C 854.277344 1601.25 853.140625 1601.761719 852.027344 1602.375 L 850.375 1603.371094 C 849.28125 1604.085938 848.210938 1604.902344 847.164062 1605.820312 L 854.785156 1613.582031 L 856.121094 1616.65625 L 857.710938 1619.304688 L 859.546875 1621.527344 L 861.632812 1623.332031 L 863.964844 1624.714844 L 866.550781 1625.671875 L 869.382812 1626.207031 L 872.464844 1626.320312 L 875.796875 1626.011719 L 877.082031 1625.550781 C 877.90625 1625.207031 878.660156 1624.78125 879.34375 1624.273438 C 880.027344 1623.765625 880.644531 1623.179688 881.191406 1622.511719 C 882.285156 1621.175781 883.101562 1619.519531 883.648438 1617.542969 C 883.890625 1616.054688 884.007812 1614.675781 883.996094 1613.402344 C 884.058594 1612.386719 883.847656 1610.960938 883.359375 1609.121094 " fill-opacity="1" fill-rule="nonzero"/></g><g clip-path="url(#04c3e20cc2)"><path fill="#e0c3d4" d="M 857.191406 1641.5 L 857.589844 1641.199219 C 858.621094 1640.375 859.425781 1639.414062 860.003906 1638.308594 L 860.679688 1636.667969 C 861.074219 1635.53125 861.351562 1634.304688 861.511719 1632.996094 L 861.671875 1630.96875 C 861.71875 1629.578125 861.652344 1628.097656 861.46875 1626.53125 C 861.285156 1624.96875 860.988281 1623.316406 860.578125 1621.582031 L 859.871094 1618.914062 L 859.222656 1617.179688 C 858.742188 1616.046875 858.171875 1614.96875 857.515625 1613.945312 L 856.457031 1612.445312 C 855.710938 1611.472656 854.871094 1610.550781 853.941406 1609.683594 L 852.480469 1608.421875 C 851.460938 1607.605469 850.355469 1606.84375 849.15625 1606.132812 L 844.109375 1615.761719 L 841.597656 1617.980469 L 839.5625 1620.304688 L 838.007812 1622.738281 L 836.933594 1625.273438 L 836.339844 1627.917969 L 836.222656 1630.664062 L 836.589844 1633.519531 L 837.433594 1636.480469 L 838.757812 1639.546875 L 839.59375 1640.621094 C 840.175781 1641.296875 840.816406 1641.878906 841.507812 1642.371094 C 842.203125 1642.863281 842.953125 1643.269531 843.757812 1643.582031 C 845.371094 1644.207031 847.203125 1644.472656 849.253906 1644.375 C 850.746094 1644.148438 852.097656 1643.832031 853.308594 1643.425781 C 854.296875 1643.171875 855.59375 1642.53125 857.191406 1641.5 " fill-opacity="1" fill-rule="nonzero"/></g><path fill="#e0c3d4" d="M 820.339844 1585.132812 L 820.195312 1585.609375 C 819.847656 1586.882812 819.761719 1588.132812 819.941406 1589.367188 L 820.363281 1591.089844 C 820.71875 1592.242188 821.214844 1593.394531 821.851562 1594.546875 L 822.917969 1596.28125 C 823.703125 1597.4375 824.628906 1598.59375 825.699219 1599.753906 C 826.765625 1600.910156 827.980469 1602.074219 829.335938 1603.234375 L 831.476562 1604.980469 L 833.027344 1606 C 834.078125 1606.636719 835.175781 1607.171875 836.3125 1607.617188 L 838.050781 1608.210938 C 839.230469 1608.558594 840.449219 1608.8125 841.710938 1608.96875 L 843.636719 1609.132812 C 844.941406 1609.195312 846.289062 1609.164062 847.675781 1609.035156 L 846.085938 1598.285156 L 846.8125 1595.015625 L 847.089844 1591.941406 L 846.914062 1589.0625 L 846.289062 1586.378906 L 845.214844 1583.894531 L 843.6875 1581.601562 L 841.710938 1579.507812 L 839.28125 1577.609375 L 836.40625 1575.90625 L 835.09375 1575.523438 C 834.226562 1575.320312 833.367188 1575.222656 832.515625 1575.230469 C 831.660156 1575.238281 830.816406 1575.355469 829.980469 1575.574219 C 828.308594 1576.011719 826.671875 1576.871094 825.066406 1578.152344 C 823.996094 1579.214844 823.085938 1580.261719 822.34375 1581.300781 C 821.695312 1582.082031 821.027344 1583.363281 820.339844 1585.132812 " fill-opacity="1" fill-rule="nonzero"/><path fill="#e0c3d4" d="M 818.242188 1626.675781 L 818.652344 1626.960938 C 819.757812 1627.683594 820.921875 1628.148438 822.15625 1628.359375 L 823.929688 1628.492188 C 825.136719 1628.511719 826.386719 1628.398438 827.683594 1628.148438 L 829.664062 1627.671875 C 831.007812 1627.285156 832.398438 1626.765625 833.832031 1626.109375 C 835.269531 1625.453125 836.75 1624.660156 838.277344 1623.730469 L 840.601562 1622.238281 L 842.054688 1621.085938 C 842.984375 1620.28125 843.835938 1619.40625 844.609375 1618.464844 L 845.710938 1617 C 846.40625 1615.988281 847.027344 1614.910156 847.566406 1613.757812 L 848.316406 1611.984375 C 848.78125 1610.765625 849.164062 1609.476562 849.472656 1608.121094 L 838.734375 1606.308594 L 835.84375 1604.609375 L 832.996094 1603.394531 L 830.199219 1602.671875 L 827.449219 1602.4375 L 824.75 1602.6875 L 822.09375 1603.429688 L 819.484375 1604.65625 L 816.925781 1606.375 L 814.410156 1608.578125 L 813.640625 1609.703125 C 813.179688 1610.464844 812.824219 1611.25 812.566406 1612.0625 C 812.3125 1612.875 812.160156 1613.710938 812.109375 1614.570312 C 812.011719 1616.292969 812.324219 1618.113281 813.050781 1620.03125 C 813.730469 1621.378906 814.449219 1622.5625 815.207031 1623.585938 C 815.753906 1624.445312 816.765625 1625.476562 818.242188 1626.675781 " fill-opacity="1" fill-rule="nonzero"/><path fill="#fef0af" d="M 855.804688 1607.394531 L 855.691406 1608.472656 C 855.503906 1609.429688 855.1875 1610.300781 854.742188 1611.078125 C 854.519531 1611.46875 854.265625 1611.832031 853.976562 1612.175781 C 853.207031 1612.996094 852.703125 1613.460938 852.472656 1613.570312 C 852.089844 1613.847656 851.691406 1614.082031 851.277344 1614.28125 C 850.226562 1614.707031 849.578125 1614.917969 849.335938 1614.910156 C 848.433594 1615.074219 847.476562 1615.082031 846.46875 1614.933594 C 845.988281 1614.839844 845.527344 1614.714844 845.09375 1614.554688 C 844.847656 1614.515625 844.246094 1614.207031 843.285156 1613.628906 C 842.550781 1613.121094 841.910156 1612.484375 841.355469 1611.722656 C 840.128906 1609.878906 839.660156 1607.996094 839.949219 1606.070312 C 840.082031 1605.109375 840.355469 1604.230469 840.765625 1603.429688 C 840.972656 1603.03125 841.214844 1602.652344 841.488281 1602.292969 C 841.585938 1602.082031 842.074219 1601.59375 842.949219 1600.820312 C 844.402344 1599.683594 846.128906 1599.128906 848.136719 1599.152344 C 849.140625 1599.214844 850.0625 1599.417969 850.902344 1599.757812 C 851.324219 1599.929688 851.722656 1600.132812 852.105469 1600.375 C 852.320312 1600.449219 852.847656 1600.890625 853.683594 1601.691406 C 854.324219 1602.378906 854.820312 1603.136719 855.171875 1603.964844 C 855.304688 1604.152344 855.484375 1604.8125 855.714844 1605.945312 C 855.78125 1606.410156 855.8125 1606.894531 855.804688 1607.394531 " fill-opacity="1" fill-rule="nonzero"/><path fill="#fff0ac" d="M 853.210938 1613.820312 C 852.433594 1613.820312 851.652344 1613.796875 850.875 1613.746094 C 850.097656 1613.699219 849.320312 1613.628906 848.546875 1613.535156 C 847.769531 1613.4375 847 1613.320312 846.234375 1613.175781 C 845.46875 1613.035156 844.703125 1612.871094 843.949219 1612.679688 C 843.191406 1612.492188 842.441406 1612.277344 841.699219 1612.042969 C 840.953125 1611.808594 840.21875 1611.550781 839.492188 1611.269531 C 838.761719 1610.988281 838.042969 1610.6875 837.335938 1610.363281 C 836.625 1610.039062 835.925781 1609.691406 835.238281 1609.324219 C 834.550781 1608.957031 833.875 1608.570312 833.210938 1608.160156 C 832.546875 1607.75 831.894531 1607.320312 831.257812 1606.871094 C 830.621094 1606.421875 829.996094 1605.957031 829.386719 1605.46875 C 828.777344 1604.980469 828.183594 1604.476562 827.605469 1603.953125 C 827.027344 1603.429688 826.464844 1602.886719 825.921875 1602.328125 C 825.378906 1601.769531 824.851562 1601.195312 824.339844 1600.605469 C 823.832031 1600.015625 823.339844 1599.410156 822.867188 1598.789062 C 822.394531 1598.167969 821.941406 1597.535156 821.507812 1596.886719 C 821.074219 1596.238281 820.660156 1595.574219 820.269531 1594.902344 C 819.875 1594.226562 819.503906 1593.542969 819.152344 1592.847656 C 818.800781 1592.148438 818.472656 1591.441406 818.167969 1590.726562 C 817.859375 1590.007812 817.574219 1589.285156 817.3125 1588.550781 C 817.046875 1587.816406 816.808594 1587.074219 816.589844 1586.324219 C 816.375 1585.574219 816.179688 1584.820312 816.007812 1584.058594 C 815.835938 1583.296875 815.691406 1582.53125 815.566406 1581.761719 C 815.441406 1580.992188 815.339844 1580.21875 815.265625 1579.441406 C 815.1875 1578.667969 815.136719 1577.886719 815.105469 1577.109375 C 815.078125 1576.328125 815.074219 1575.550781 815.09375 1574.769531 C 815.113281 1573.992188 815.15625 1573.210938 815.222656 1572.433594 C 815.289062 1571.65625 815.378906 1570.882812 815.496094 1570.113281 C 815.609375 1569.339844 815.746094 1568.574219 815.910156 1567.808594 C 816.070312 1567.046875 816.253906 1566.289062 816.464844 1565.539062 C 816.671875 1564.785156 816.902344 1564.042969 817.15625 1563.304688 C 817.410156 1562.566406 817.6875 1561.835938 817.984375 1561.117188 C 818.28125 1560.394531 818.601562 1559.683594 818.945312 1558.984375 C 819.289062 1558.285156 819.652344 1557.59375 820.035156 1556.914062 C 820.421875 1556.234375 820.824219 1555.570312 821.25 1554.917969 C 821.675781 1554.261719 822.121094 1553.621094 822.585938 1552.996094 C 823.050781 1552.371094 823.535156 1551.757812 824.035156 1551.160156 C 824.539062 1550.566406 825.058594 1549.984375 825.597656 1549.417969 C 826.136719 1548.855469 826.691406 1548.304688 827.261719 1547.777344 C 827.832031 1547.246094 828.421875 1546.730469 829.023438 1546.238281 C 829.625 1545.742188 830.246094 1545.265625 830.875 1544.8125 C 831.507812 1544.355469 832.15625 1543.917969 832.8125 1543.5 C 833.472656 1543.082031 834.144531 1542.6875 834.828125 1542.308594 C 835.511719 1541.933594 836.207031 1541.578125 836.910156 1541.246094 C 837.617188 1540.914062 838.332031 1540.601562 839.054688 1540.3125 C 839.78125 1540.023438 840.511719 1539.757812 841.253906 1539.511719 C 841.992188 1539.269531 842.742188 1539.046875 843.496094 1538.847656 C 844.25 1538.648438 845.007812 1538.472656 845.773438 1538.324219 C 846.539062 1538.171875 847.308594 1538.042969 848.082031 1537.9375 C 848.855469 1537.832031 849.628906 1537.753906 850.40625 1537.695312 C 851.1875 1537.636719 851.964844 1537.605469 852.746094 1537.597656 C 853.523438 1537.585938 854.304688 1537.601562 855.082031 1537.640625 C 855.863281 1537.679688 856.640625 1537.742188 857.414062 1537.828125 C 858.191406 1537.914062 858.960938 1538.023438 859.730469 1538.15625 C 860.5 1538.292969 861.261719 1538.449219 862.019531 1538.628906 C 862.78125 1538.808594 863.53125 1539.015625 864.277344 1539.242188 C 865.023438 1539.46875 865.761719 1539.71875 866.496094 1539.988281 C 867.226562 1540.261719 867.949219 1540.554688 868.660156 1540.871094 C 869.375 1541.1875 870.074219 1541.527344 870.769531 1541.886719 C 871.460938 1542.246094 872.140625 1542.625 872.808594 1543.027344 C 873.476562 1543.429688 874.132812 1543.851562 874.777344 1544.292969 C 875.417969 1544.734375 876.046875 1545.195312 876.664062 1545.675781 C 877.277344 1546.15625 877.875 1546.65625 878.460938 1547.171875 C 879.042969 1547.6875 879.613281 1548.222656 880.164062 1548.777344 C 881.488281 1550.101562 882.710938 1551.515625 883.828125 1553.019531 C 884.945312 1554.523438 885.945312 1556.105469 886.832031 1557.757812 C 887.714844 1559.410156 888.472656 1561.117188 889.105469 1562.882812 C 889.738281 1564.648438 890.238281 1566.449219 890.601562 1568.285156 C 890.96875 1570.125 891.199219 1571.980469 891.289062 1573.851562 C 891.382812 1575.722656 891.335938 1577.59375 891.152344 1579.457031 C 890.96875 1581.324219 890.648438 1583.164062 890.195312 1584.984375 C 889.738281 1586.800781 889.152344 1588.578125 888.433594 1590.308594 C 887.71875 1592.039062 886.875 1593.710938 885.914062 1595.316406 C 884.949219 1596.925781 883.871094 1598.453125 882.683594 1599.902344 C 881.492188 1601.347656 880.203125 1602.703125 878.8125 1603.960938 C 877.425781 1605.21875 875.949219 1606.367188 874.390625 1607.410156 C 872.832031 1608.449219 871.207031 1609.371094 869.511719 1610.171875 C 867.816406 1610.972656 866.070312 1611.644531 864.277344 1612.1875 C 862.484375 1612.730469 860.660156 1613.136719 858.804688 1613.410156 C 856.949219 1613.683594 855.085938 1613.820312 853.210938 1613.820312 Z M 853.210938 1545.992188 C 852.074219 1545.988281 850.941406 1546.050781 849.8125 1546.179688 C 848.679688 1546.304688 847.5625 1546.496094 846.453125 1546.753906 C 845.347656 1547.007812 844.257812 1547.328125 843.183594 1547.707031 C 842.113281 1548.089844 841.066406 1548.53125 840.046875 1549.03125 C 839.027344 1549.53125 838.035156 1550.089844 837.078125 1550.703125 C 836.121094 1551.320312 835.203125 1551.984375 834.324219 1552.707031 C 833.441406 1553.425781 832.605469 1554.191406 831.816406 1555.007812 C 831.023438 1555.824219 830.277344 1556.683594 829.585938 1557.582031 C 828.890625 1558.484375 828.25 1559.421875 827.664062 1560.398438 C 827.078125 1561.371094 826.550781 1562.375 826.078125 1563.410156 C 825.609375 1564.445312 825.199219 1565.503906 824.847656 1566.585938 C 824.5 1567.667969 824.210938 1568.769531 823.988281 1569.882812 C 823.765625 1570.996094 823.605469 1572.121094 823.511719 1573.253906 C 823.417969 1574.386719 823.386719 1575.523438 823.425781 1576.660156 C 823.460938 1577.796875 823.558594 1578.929688 823.726562 1580.054688 C 823.890625 1581.179688 824.121094 1582.289062 824.414062 1583.390625 C 824.707031 1584.488281 825.0625 1585.566406 825.476562 1586.625 C 825.894531 1587.683594 826.371094 1588.710938 826.90625 1589.714844 C 827.441406 1590.71875 828.03125 1591.6875 828.675781 1592.625 C 829.324219 1593.5625 830.019531 1594.457031 830.769531 1595.3125 C 831.519531 1596.167969 832.316406 1596.976562 833.15625 1597.742188 C 834 1598.507812 834.882812 1599.21875 835.804688 1599.882812 C 836.730469 1600.546875 837.6875 1601.15625 838.679688 1601.707031 C 839.675781 1602.261719 840.695312 1602.757812 841.746094 1603.191406 C 842.796875 1603.628906 843.871094 1604.003906 844.964844 1604.316406 C 846.054688 1604.628906 847.164062 1604.878906 848.285156 1605.0625 C 849.40625 1605.25 850.535156 1605.371094 851.671875 1605.425781 C 852.808594 1605.484375 853.945312 1605.472656 855.078125 1605.398438 C 856.214844 1605.324219 857.339844 1605.1875 858.457031 1604.984375 C 859.578125 1604.78125 860.679688 1604.515625 861.769531 1604.183594 C 862.859375 1603.855469 863.921875 1603.464844 864.96875 1603.011719 C 866.011719 1602.558594 867.023438 1602.050781 868.011719 1601.480469 C 868.996094 1600.914062 869.945312 1600.289062 870.859375 1599.613281 C 871.769531 1598.933594 872.644531 1598.207031 873.472656 1597.429688 C 874.300781 1596.652344 875.085938 1595.832031 875.820312 1594.964844 C 876.558594 1594.097656 877.242188 1593.191406 877.871094 1592.246094 C 878.503906 1591.296875 879.078125 1590.320312 879.597656 1589.308594 C 880.117188 1588.296875 880.578125 1587.257812 880.976562 1586.195312 C 881.378906 1585.128906 881.71875 1584.046875 881.992188 1582.941406 C 882.269531 1581.839844 882.480469 1580.722656 882.628906 1579.597656 C 882.777344 1578.46875 882.859375 1577.335938 882.878906 1576.199219 C 882.894531 1575.0625 882.847656 1573.929688 882.738281 1572.796875 C 882.625 1571.664062 882.449219 1570.542969 882.207031 1569.433594 C 881.96875 1568.320312 881.664062 1567.226562 881.296875 1566.148438 C 880.929688 1565.074219 880.503906 1564.023438 880.019531 1562.992188 C 879.53125 1561.964844 878.988281 1560.96875 878.386719 1560.003906 C 877.785156 1559.039062 877.128906 1558.113281 876.421875 1557.222656 C 875.714844 1556.332031 874.957031 1555.484375 874.152344 1554.679688 C 872.777344 1553.304688 871.28125 1552.078125 869.664062 1550.996094 C 868.050781 1549.914062 866.34375 1549 864.546875 1548.253906 C 862.75 1547.511719 860.898438 1546.945312 858.992188 1546.566406 C 857.082031 1546.183594 855.15625 1545.992188 853.210938 1545.992188 Z M 853.210938 1545.992188 " fill-opacity="1" fill-rule="nonzero"/><g clip-path="url(#37f4584fef)"><path fill="#fff0ac" d="M 907.238281 1633.941406 C 906.085938 1633.9375 905.101562 1633.527344 904.289062 1632.707031 L 874.238281 1602.679688 C 874.042969 1602.484375 873.867188 1602.273438 873.714844 1602.042969 C 873.5625 1601.8125 873.433594 1601.574219 873.328125 1601.316406 C 873.222656 1601.0625 873.144531 1600.800781 873.089844 1600.53125 C 873.035156 1600.261719 873.007812 1599.988281 873.007812 1599.714844 C 873.007812 1599.441406 873.035156 1599.167969 873.089844 1598.898438 C 873.144531 1598.628906 873.222656 1598.367188 873.328125 1598.109375 C 873.433594 1597.855469 873.5625 1597.617188 873.714844 1597.386719 C 873.867188 1597.15625 874.042969 1596.945312 874.238281 1596.75 C 874.429688 1596.558594 874.644531 1596.382812 874.871094 1596.230469 C 875.101562 1596.078125 875.34375 1595.949219 875.597656 1595.84375 C 875.851562 1595.738281 876.113281 1595.660156 876.382812 1595.605469 C 876.652344 1595.550781 876.925781 1595.523438 877.199219 1595.523438 C 877.476562 1595.523438 877.746094 1595.550781 878.019531 1595.605469 C 878.289062 1595.660156 878.550781 1595.738281 878.804688 1595.84375 C 879.058594 1595.949219 879.300781 1596.078125 879.527344 1596.230469 C 879.757812 1596.382812 879.96875 1596.558594 880.164062 1596.75 L 910.191406 1626.800781 C 910.484375 1627.09375 910.726562 1627.421875 910.921875 1627.789062 C 911.113281 1628.152344 911.25 1628.539062 911.332031 1628.941406 C 911.410156 1629.347656 911.429688 1629.753906 911.390625 1630.167969 C 911.351562 1630.578125 911.25 1630.972656 911.09375 1631.355469 C 910.933594 1631.738281 910.726562 1632.085938 910.464844 1632.40625 C 910.203125 1632.726562 909.902344 1633 909.558594 1633.230469 C 909.214844 1633.460938 908.847656 1633.636719 908.453125 1633.757812 C 908.058594 1633.878906 907.652344 1633.941406 907.238281 1633.941406 Z M 907.238281 1633.941406 " fill-opacity="1" fill-rule="nonzero"/></g><g clip-path="url(#46568e342e)"><path fill="#fff0ac" d="M 510.882812 1557.980469 C 512.121094 1540.117188 518.644531 1523.34375 529.84375 1509.257812 C 537.070312 1512.386719 544.773438 1515.035156 552.816406 1517.128906 C 549.121094 1529.996094 547.015625 1543.722656 546.546875 1557.980469 Z M 592.84375 1616.195312 L 592.84375 1651.554688 C 582.703125 1648.148438 573.273438 1636.480469 566.519531 1618.929688 C 574.742188 1617.40625 583.574219 1616.496094 592.84375 1616.195312 Z M 570.863281 1647.894531 C 558.347656 1643.675781 546.925781 1636.683594 537.386719 1627.375 C 543.148438 1625.089844 549.421875 1623.078125 556.09375 1621.382812 C 560.070312 1632.003906 565.105469 1641.015625 570.863281 1647.894531 Z M 557.183594 1570.308594 L 592.84375 1570.308594 L 592.84375 1605.445312 C 582.648438 1605.769531 572.675781 1606.894531 563.128906 1608.773438 C 559.699219 1596.871094 557.660156 1583.65625 557.183594 1570.308594 Z M 592.84375 1522.835938 L 592.84375 1557.976562 L 557.183594 1557.976562 C 557.664062 1544.621094 559.699219 1531.414062 563.128906 1519.519531 C 572.71875 1521.402344 582.695312 1522.519531 592.84375 1522.835938 Z M 537.386719 1500.914062 C 546.933594 1491.605469 558.355469 1484.613281 570.863281 1480.398438 C 565.109375 1487.261719 560.078125 1496.277344 556.09375 1506.902344 C 549.429688 1505.210938 543.148438 1503.195312 537.386719 1500.914062 Z M 566.519531 1509.355469 C 573.269531 1491.789062 582.710938 1480.125 592.84375 1476.746094 L 592.84375 1512.097656 C 583.566406 1511.789062 574.734375 1510.875 566.519531 1509.355469 Z M 552.8125 1611.15625 C 544.785156 1613.253906 537.074219 1615.898438 529.839844 1619.03125 C 518.644531 1604.957031 512.117188 1588.179688 510.878906 1570.308594 L 546.542969 1570.308594 C 547.011719 1584.554688 549.117188 1598.28125 552.8125 1611.15625 Z M 687.132812 1570.269531 C 685.886719 1588.171875 679.371094 1604.960938 668.171875 1619.03125 C 660.929688 1615.898438 653.21875 1613.257812 645.199219 1611.164062 C 648.886719 1598.300781 650.992188 1584.574219 651.46875 1570.265625 L 687.132812 1570.265625 Z M 605.171875 1512.097656 L 605.171875 1476.746094 C 615.3125 1480.125 624.742188 1491.796875 631.496094 1509.355469 C 623.28125 1510.875 614.449219 1511.789062 605.171875 1512.097656 Z M 641.925781 1506.902344 C 637.945312 1496.28125 632.910156 1487.261719 627.148438 1480.398438 C 639.65625 1484.609375 651.085938 1491.601562 660.625 1500.914062 C 654.859375 1503.195312 648.585938 1505.210938 641.925781 1506.902344 Z M 640.824219 1557.980469 L 605.171875 1557.980469 L 605.171875 1522.839844 C 615.351562 1522.515625 625.324219 1521.394531 634.878906 1519.523438 C 638.308594 1531.398438 640.355469 1544.613281 640.824219 1557.980469 Z M 651.464844 1557.980469 C 650.996094 1543.730469 648.890625 1530.011719 645.195312 1517.136719 C 653.230469 1515.039062 660.933594 1512.394531 668.175781 1509.261719 C 679.371094 1523.339844 685.890625 1540.109375 687.128906 1557.984375 L 651.464844 1557.984375 Z M 605.171875 1605.449219 L 605.171875 1570.269531 L 640.824219 1570.269531 C 640.351562 1583.664062 638.308594 1596.886719 634.882812 1608.769531 C 625.328125 1606.886719 615.351562 1605.765625 605.171875 1605.449219 Z M 660.628906 1627.375 C 651.089844 1636.679688 639.660156 1643.671875 627.144531 1647.894531 C 632.90625 1641.015625 637.945312 1632.007812 641.921875 1621.382812 C 648.601562 1623.085938 654.875 1625.089844 660.628906 1627.375 Z M 631.488281 1618.929688 C 624.746094 1636.484375 615.3125 1648.144531 605.171875 1651.554688 L 605.171875 1616.195312 C 614.410156 1616.496094 623.238281 1617.40625 631.488281 1618.929688 Z M 599.003906 1465.046875 C 544.371094 1465.046875 499.914062 1509.503906 499.914062 1564.148438 C 499.914062 1618.78125 544.371094 1663.238281 599.003906 1663.238281 C 653.644531 1663.238281 698.101562 1618.78125 698.101562 1564.148438 C 698.101562 1509.503906 653.644531 1465.046875 599.003906 1465.046875 Z M 599.003906 1465.046875 " fill-opacity="1" fill-rule="evenodd"/></g><g clip-path="url(#41ca5ea48a)"><path fill="#fef0af" d="M 1125.730469 1612.898438 C 1127.507812 1612.898438 1128.976562 1611.429688 1128.976562 1609.652344 L 1128.976562 1537.300781 C 1128.976562 1535.527344 1127.507812 1534.054688 1125.730469 1534.054688 L 1063.113281 1534.054688 C 1051.992188 1534.054688 1042.992188 1543.097656 1042.992188 1554.175781 L 1042.992188 1618.65625 C 1042.777344 1619.738281 1042.644531 1620.820312 1042.644531 1621.945312 C 1042.644531 1630.511719 1049.613281 1637.480469 1058.179688 1637.480469 L 1061.039062 1637.480469 L 1061.039062 1642.109375 C 1061.039062 1643.105469 1061.644531 1643.96875 1062.507812 1644.316406 C 1063.417969 1644.707031 1064.457031 1644.488281 1065.148438 1643.796875 L 1071.464844 1637.480469 L 1072.417969 1637.480469 L 1078.910156 1643.96875 C 1079.386719 1644.445312 1079.992188 1644.664062 1080.597656 1644.664062 C 1080.898438 1644.664062 1081.203125 1644.617188 1081.507812 1644.488281 C 1082.414062 1644.101562 1082.976562 1643.234375 1082.976562 1642.28125 L 1082.976562 1637.523438 L 1125.730469 1637.523438 C 1127.507812 1637.523438 1128.976562 1636.050781 1128.976562 1634.277344 C 1128.976562 1632.503906 1127.507812 1631.03125 1125.730469 1631.03125 L 1116.992188 1631.03125 L 1116.992188 1612.941406 L 1125.730469 1612.941406 Z M 1110.5 1630.988281 L 1082.976562 1630.988281 L 1082.976562 1622.851562 C 1082.976562 1621.511719 1081.894531 1620.429688 1080.554688 1620.429688 L 1063.375 1620.429688 C 1062.03125 1620.429688 1060.949219 1621.511719 1060.949219 1622.851562 L 1060.949219 1630.988281 L 1058.09375 1630.988281 C 1053.117188 1630.988281 1049.050781 1626.921875 1049.050781 1621.945312 C 1049.050781 1621.078125 1049.179688 1620.257812 1049.398438 1619.476562 C 1049.441406 1619.390625 1049.441406 1619.261719 1049.484375 1619.175781 C 1049.570312 1618.957031 1049.65625 1618.742188 1049.742188 1618.480469 C 1049.742188 1618.4375 1049.742188 1618.4375 1049.785156 1618.394531 C 1050.695312 1616.230469 1052.425781 1614.5 1054.589844 1613.589844 C 1054.589844 1613.589844 1054.589844 1613.589844 1054.632812 1613.589844 C 1054.894531 1613.503906 1055.109375 1613.417969 1055.367188 1613.332031 C 1055.410156 1613.332031 1055.5 1613.289062 1055.542969 1613.289062 C 1055.757812 1613.246094 1055.929688 1613.160156 1056.148438 1613.117188 C 1056.234375 1613.117188 1056.320312 1613.074219 1056.40625 1613.074219 C 1056.625 1613.027344 1056.796875 1612.984375 1057.011719 1612.984375 C 1057.097656 1612.984375 1057.1875 1612.941406 1057.273438 1612.941406 C 1057.574219 1612.898438 1057.835938 1612.898438 1058.136719 1612.898438 L 1110.5 1612.898438 Z M 1110.5 1630.988281 " fill-opacity="1" fill-rule="nonzero"/></g><g clip-path="url(#3197ee5625)"><path fill="#fef0af" d="M 119.238281 1591.460938 C 134.128906 1591.460938 146.238281 1575.65625 146.238281 1560.769531 C 146.238281 1545.882812 134.128906 1533.769531 119.238281 1533.769531 C 104.351562 1533.769531 92.238281 1545.882812 92.238281 1560.769531 C 92.242188 1575.65625 104.351562 1591.460938 119.238281 1591.460938 Z M 119.238281 1591.460938 " fill-opacity="1" fill-rule="nonzero"/></g><g clip-path="url(#f08b0ec8a9)"><path fill="#fef0af" d="M 139.507812 1591.734375 C 134.269531 1595.726562 127.738281 1598.101562 120.660156 1598.101562 L 117.816406 1598.101562 C 110.738281 1598.101562 104.203125 1595.726562 98.96875 1591.734375 C 81.867188 1594.5 68.808594 1609.324219 68.808594 1627.203125 C 68.808594 1637.023438 91.386719 1644.988281 119.238281 1644.988281 C 147.089844 1644.988281 169.667969 1637.023438 169.667969 1627.203125 C 169.667969 1609.324219 156.609375 1594.5 139.507812 1591.734375 Z M 139.507812 1591.734375 " fill-opacity="1" fill-rule="nonzero"/></g><g clip-path="url(#42dccfc4bc)"><path fill="#fef0af" d="M 386.019531 1631.9375 L 386.019531 1538.308594 C 386.019531 1535.960938 384.113281 1534.054688 381.765625 1534.054688 L 309.414062 1534.054688 C 307.066406 1534.054688 305.160156 1535.960938 305.160156 1538.308594 L 305.160156 1551.078125 L 290.265625 1551.078125 C 286.746094 1551.078125 283.878906 1553.941406 283.878906 1557.460938 L 283.878906 1629.808594 C 283.878906 1638.023438 290.5625 1644.707031 298.773438 1644.707031 L 373.253906 1644.707031 C 380.292969 1644.707031 386.019531 1638.976562 386.019531 1631.9375 Z M 292.390625 1629.808594 L 292.390625 1559.589844 L 305.160156 1559.589844 L 305.160156 1629.808594 C 305.160156 1633.328125 302.296875 1636.195312 298.777344 1636.195312 C 295.257812 1636.195312 292.390625 1633.328125 292.390625 1629.808594 Z M 313.671875 1629.808594 L 313.671875 1542.566406 L 377.507812 1542.566406 L 377.507812 1631.9375 C 377.507812 1634.289062 375.597656 1636.195312 373.253906 1636.195312 L 313.671875 1636.195312 Z M 313.671875 1629.808594 " fill-opacity="1" fill-rule="nonzero"/></g><path fill="#fef0af" d="M 364.742188 1559.589844 L 326.4375 1559.589844 C 324.089844 1559.589844 322.183594 1561.496094 322.183594 1563.84375 C 322.183594 1566.195312 324.089844 1568.101562 326.4375 1568.101562 L 364.742188 1568.101562 C 367.089844 1568.101562 368.996094 1566.195312 368.996094 1563.84375 C 368.996094 1561.496094 367.089844 1559.589844 364.742188 1559.589844 Z M 364.742188 1559.589844 " fill-opacity="1" fill-rule="nonzero"/><path fill="#fef0af" d="M 364.742188 1576.613281 L 326.4375 1576.613281 C 324.089844 1576.613281 322.183594 1578.519531 322.183594 1580.867188 C 322.183594 1583.21875 324.089844 1585.125 326.4375 1585.125 L 364.742188 1585.125 C 367.089844 1585.125 368.996094 1583.21875 368.996094 1580.867188 C 368.996094 1578.519531 367.089844 1576.613281 364.742188 1576.613281 Z M 364.742188 1576.613281 " fill-opacity="1" fill-rule="nonzero"/><path fill="#fef0af" d="M 364.742188 1593.636719 L 326.4375 1593.636719 C 324.089844 1593.636719 322.183594 1595.539062 322.183594 1597.890625 C 322.183594 1600.246094 324.089844 1602.148438 326.4375 1602.148438 L 364.742188 1602.148438 C 367.089844 1602.148438 368.996094 1600.246094 368.996094 1597.890625 C 368.996094 1595.539062 367.089844 1593.636719 364.742188 1593.636719 Z M 364.742188 1593.636719 " fill-opacity="1" fill-rule="nonzero"/><path fill="#fef0af" d="M 364.742188 1610.660156 L 326.4375 1610.660156 C 324.089844 1610.660156 322.183594 1612.5625 322.183594 1614.914062 C 322.183594 1617.269531 324.089844 1619.171875 326.4375 1619.171875 L 364.742188 1619.171875 C 367.089844 1619.171875 368.996094 1617.269531 368.996094 1614.914062 C 368.996094 1612.5625 367.089844 1610.660156 364.742188 1610.660156 Z M 364.742188 1610.660156 " fill-opacity="1" fill-rule="nonzero"/></svg>