<svg xmlns="http://www.w3.org/2000/svg" xmlns:xlink="http://www.w3.org/1999/xlink" width="1587" zoomAndPan="magnify" viewBox="0 0 1190.25 1683.749949" height="2245" preserveAspectRatio="xMidYMid meet" version="1.0"><defs><clipPath id="1676b0002c"><path d="M 537.882812 768.785156 L 651.8125 768.785156 L 651.8125 914.941406 L 537.882812 914.941406 Z M 537.882812 768.785156 " clip-rule="nonzero"/></clipPath></defs><g clip-path="url(#1676b0002c)"><path fill="#fef0af" d="M 647.554688 872.785156 C 649.894531 872.785156 651.835938 870.847656 651.835938 868.507812 L 651.835938 773.066406 C 651.835938 770.722656 649.894531 768.785156 647.554688 768.785156 L 564.957031 768.785156 C 550.285156 768.785156 538.414062 780.714844 538.414062 795.328125 L 538.414062 880.378906 C 538.128906 881.804688 537.957031 883.234375 537.957031 884.71875 C 537.957031 896.019531 547.144531 905.210938 558.449219 905.210938 L 562.214844 905.210938 L 562.214844 911.316406 C 562.214844 912.628906 563.015625 913.773438 564.15625 914.230469 C 565.355469 914.742188 566.726562 914.457031 567.636719 913.542969 L 575.972656 905.210938 L 577.226562 905.210938 L 585.789062 913.773438 C 586.417969 914.398438 587.21875 914.683594 588.015625 914.683594 C 588.417969 914.683594 588.816406 914.628906 589.214844 914.457031 C 590.414062 913.941406 591.15625 912.800781 591.15625 911.546875 L 591.15625 905.265625 L 647.554688 905.265625 C 649.894531 905.265625 651.835938 903.324219 651.835938 900.984375 C 651.835938 898.644531 649.894531 896.703125 647.554688 896.703125 L 636.023438 896.703125 L 636.023438 872.84375 L 647.554688 872.84375 Z M 627.460938 896.648438 L 591.15625 896.648438 L 591.15625 885.914062 C 591.15625 884.144531 589.730469 882.71875 587.960938 882.71875 L 565.296875 882.71875 C 563.527344 882.71875 562.101562 884.144531 562.101562 885.914062 L 562.101562 896.648438 L 558.335938 896.648438 C 551.769531 896.648438 546.402344 891.28125 546.402344 884.71875 C 546.402344 883.574219 546.574219 882.492188 546.859375 881.464844 C 546.917969 881.347656 546.917969 881.179688 546.976562 881.0625 C 547.089844 880.777344 547.203125 880.492188 547.316406 880.152344 C 547.316406 880.09375 547.316406 880.09375 547.375 880.035156 C 548.574219 877.183594 550.855469 874.898438 553.710938 873.699219 C 553.710938 873.699219 553.710938 873.699219 553.769531 873.699219 C 554.109375 873.585938 554.394531 873.472656 554.738281 873.359375 C 554.796875 873.359375 554.910156 873.300781 554.964844 873.300781 C 555.25 873.242188 555.480469 873.128906 555.765625 873.074219 C 555.878906 873.074219 555.992188 873.015625 556.109375 873.015625 C 556.394531 872.957031 556.621094 872.902344 556.90625 872.902344 C 557.019531 872.902344 557.136719 872.84375 557.25 872.84375 C 557.648438 872.785156 557.992188 872.785156 558.390625 872.785156 L 627.460938 872.785156 Z M 627.460938 896.648438 " fill-opacity="1" fill-rule="nonzero"/></g></svg>