<svg xmlns="http://www.w3.org/2000/svg" xmlns:xlink="http://www.w3.org/1999/xlink" width="1587" zoomAndPan="magnify" viewBox="0 0 1190.25 1683.749949" height="2245" preserveAspectRatio="xMidYMid meet" version="1.0"><defs><clipPath id="75d82217e5"><path d="M 538.375 780.574219 L 651.554688 780.574219 L 651.554688 902.746094 L 538.375 902.746094 Z M 538.375 780.574219 " clip-rule="nonzero"/></clipPath></defs><g clip-path="url(#75d82217e5)"><path fill="#fef0af" d="M 651.378906 888.824219 L 651.378906 785.28125 C 651.378906 782.683594 649.269531 780.574219 646.671875 780.574219 L 566.660156 780.574219 C 564.0625 780.574219 561.953125 782.683594 561.953125 785.28125 L 561.953125 799.398438 L 545.480469 799.398438 C 541.589844 799.398438 538.421875 802.566406 538.421875 806.460938 L 538.421875 886.472656 C 538.421875 895.554688 545.808594 902.945312 554.890625 902.945312 L 637.257812 902.945312 C 645.042969 902.945312 651.378906 896.609375 651.378906 888.824219 Z M 547.832031 886.472656 L 547.832031 808.8125 L 561.953125 808.8125 L 561.953125 886.472656 C 561.953125 890.363281 558.785156 893.53125 554.894531 893.53125 C 551 893.53125 547.832031 890.363281 547.832031 886.472656 Z M 571.367188 886.472656 L 571.367188 789.988281 L 641.964844 789.988281 L 641.964844 888.824219 C 641.964844 891.425781 639.851562 893.53125 637.257812 893.53125 L 571.367188 893.53125 Z M 571.367188 886.472656 " fill-opacity="1" fill-rule="nonzero"/></g><path fill="#fef0af" d="M 627.847656 808.8125 L 585.488281 808.8125 C 582.890625 808.8125 580.78125 810.921875 580.78125 813.519531 C 580.78125 816.117188 582.890625 818.226562 585.488281 818.226562 L 627.847656 818.226562 C 630.445312 818.226562 632.554688 816.117188 632.554688 813.519531 C 632.554688 810.921875 630.445312 808.8125 627.847656 808.8125 Z M 627.847656 808.8125 " fill-opacity="1" fill-rule="nonzero"/><path fill="#fef0af" d="M 627.847656 827.640625 L 585.488281 827.640625 C 582.890625 827.640625 580.78125 829.75 580.78125 832.347656 C 580.78125 834.945312 582.890625 837.054688 585.488281 837.054688 L 627.847656 837.054688 C 630.445312 837.054688 632.554688 834.945312 632.554688 832.347656 C 632.554688 829.75 630.445312 827.640625 627.847656 827.640625 Z M 627.847656 827.640625 " fill-opacity="1" fill-rule="nonzero"/><path fill="#fef0af" d="M 627.847656 846.464844 L 585.488281 846.464844 C 582.890625 846.464844 580.78125 848.570312 580.78125 851.171875 C 580.78125 853.777344 582.890625 855.878906 585.488281 855.878906 L 627.847656 855.878906 C 630.445312 855.878906 632.554688 853.777344 632.554688 851.171875 C 632.554688 848.570312 630.445312 846.464844 627.847656 846.464844 Z M 627.847656 846.464844 " fill-opacity="1" fill-rule="nonzero"/><path fill="#fef0af" d="M 627.847656 865.292969 L 585.488281 865.292969 C 582.890625 865.292969 580.78125 867.398438 580.78125 870 C 580.78125 872.601562 582.890625 874.707031 585.488281 874.707031 L 627.847656 874.707031 C 630.445312 874.707031 632.554688 872.601562 632.554688 870 C 632.554688 867.398438 630.445312 865.292969 627.847656 865.292969 Z M 627.847656 865.292969 " fill-opacity="1" fill-rule="nonzero"/></svg>