<svg xmlns="http://www.w3.org/2000/svg" xmlns:xlink="http://www.w3.org/1999/xlink" width="1587" zoomAndPan="magnify" viewBox="0 0 1190.25 1683.749949" height="2245" preserveAspectRatio="xMidYMid meet" version="1.0"><defs><clipPath id="b9d8b654db"><path d="M 574 824.382812 L 609 824.382812 L 609 863 L 574 863 Z M 574 824.382812 " clip-rule="nonzero"/></clipPath><clipPath id="0825e2f3b2"><path d="M 577 853 L 619.996094 853 L 619.996094 884 L 577 884 Z M 577 853 " clip-rule="nonzero"/></clipPath><clipPath id="ad2d23b2c8"><path d="M 565 860 L 595 860 L 595 904.71875 L 565 904.71875 Z M 565 860 " clip-rule="nonzero"/></clipPath><clipPath id="6a8ab35ead"><path d="M 607 848 L 651.617188 848 L 651.617188 892.347656 L 607 892.347656 Z M 607 848 " clip-rule="nonzero"/></clipPath></defs><g clip-path="url(#b9d8b654db)"><path fill="#e0c3d4" d="M 593.25 824.554688 L 592.683594 824.566406 C 591.183594 824.636719 589.796875 824.988281 588.523438 825.617188 L 586.804688 826.679688 C 585.679688 827.464844 584.605469 828.40625 583.578125 829.503906 L 582.074219 831.265625 C 581.097656 832.519531 580.167969 833.925781 579.289062 835.492188 C 578.40625 837.054688 577.574219 838.773438 576.792969 840.648438 L 575.652344 843.574219 L 575.089844 845.609375 C 574.773438 846.972656 574.574219 848.34375 574.492188 849.730469 L 574.460938 851.816406 C 574.496094 853.210938 574.652344 854.621094 574.925781 856.039062 L 575.425781 858.179688 C 575.816406 859.609375 576.324219 861.054688 576.949219 862.507812 L 588.042969 857.007812 L 591.84375 856.640625 L 595.273438 855.859375 L 598.332031 854.65625 L 601.019531 853.039062 L 603.335938 851 L 605.285156 848.542969 L 606.859375 845.671875 L 608.066406 842.378906 L 608.902344 838.667969 L 608.855469 837.121094 C 608.769531 836.109375 608.574219 835.144531 608.265625 834.226562 C 607.957031 833.308594 607.535156 832.4375 607.003906 831.609375 C 605.941406 829.960938 604.433594 828.492188 602.480469 827.207031 C 600.953125 826.421875 599.496094 825.808594 598.113281 825.375 C 597.035156 824.949219 595.414062 824.675781 593.25 824.554688 " fill-opacity="1" fill-rule="nonzero"/></g><g clip-path="url(#0825e2f3b2)"><path fill="#e0c3d4" d="M 619.15625 864.226562 L 618.96875 863.691406 C 618.4375 862.289062 617.675781 861.082031 616.683594 860.066406 L 615.140625 858.757812 C 614.042969 857.933594 612.816406 857.203125 611.453125 856.566406 L 609.3125 855.683594 C 607.816406 855.140625 606.191406 854.691406 604.429688 854.339844 C 602.671875 853.984375 600.777344 853.726562 598.75 853.558594 L 595.609375 853.382812 L 593.5 853.476562 C 592.105469 853.597656 590.738281 853.832031 589.394531 854.183594 L 587.398438 854.796875 C 586.082031 855.261719 584.789062 855.847656 583.523438 856.542969 L 581.640625 857.679688 C 580.398438 858.492188 579.183594 859.421875 577.992188 860.464844 L 586.65625 869.308594 L 588.179688 872.804688 L 589.984375 875.824219 L 592.070312 878.359375 L 594.445312 880.410156 L 597.097656 881.984375 L 600.039062 883.074219 L 603.261719 883.683594 L 606.765625 883.8125 L 610.554688 883.460938 L 612.015625 882.941406 C 612.953125 882.546875 613.808594 882.058594 614.585938 881.484375 C 615.367188 880.90625 616.066406 880.238281 616.6875 879.476562 C 617.933594 877.957031 618.863281 876.070312 619.480469 873.816406 C 619.757812 872.125 619.890625 870.550781 619.878906 869.101562 C 619.949219 867.945312 619.707031 866.320312 619.15625 864.226562 " fill-opacity="1" fill-rule="nonzero"/></g><g clip-path="url(#ad2d23b2c8)"><path fill="#e0c3d4" d="M 589.394531 901.101562 L 589.847656 900.757812 C 591.019531 899.820312 591.933594 898.726562 592.59375 897.46875 L 593.363281 895.597656 C 593.808594 894.300781 594.125 892.910156 594.308594 891.417969 L 594.488281 889.109375 C 594.542969 887.523438 594.464844 885.835938 594.257812 884.054688 C 594.050781 882.273438 593.714844 880.394531 593.246094 878.417969 L 592.445312 875.378906 L 591.703125 873.402344 C 591.15625 872.117188 590.511719 870.886719 589.761719 869.71875 L 588.558594 868.011719 C 587.707031 866.90625 586.753906 865.855469 585.699219 864.867188 L 584.039062 863.429688 C 582.878906 862.5 581.617188 861.632812 580.257812 860.824219 L 574.515625 871.792969 L 571.660156 874.316406 L 569.34375 876.964844 L 567.578125 879.734375 L 566.355469 882.621094 L 565.679688 885.632812 L 565.546875 888.761719 L 565.964844 892.011719 L 566.925781 895.382812 L 568.429688 898.875 L 569.378906 900.101562 C 570.042969 900.867188 570.769531 901.53125 571.558594 902.09375 C 572.351562 902.65625 573.203125 903.113281 574.117188 903.472656 C 575.949219 904.183594 578.035156 904.484375 580.367188 904.375 C 582.066406 904.117188 583.601562 903.753906 584.980469 903.296875 C 586.105469 903.007812 587.574219 902.277344 589.394531 901.101562 " fill-opacity="1" fill-rule="nonzero"/></g><path fill="#e0c3d4" d="M 547.484375 836.910156 L 547.320312 837.453125 C 546.921875 838.898438 546.828125 840.324219 547.03125 841.730469 L 547.511719 843.691406 C 547.914062 845.003906 548.476562 846.316406 549.207031 847.628906 L 550.417969 849.601562 C 551.308594 850.917969 552.363281 852.238281 553.578125 853.558594 C 554.792969 854.878906 556.171875 856.199219 557.714844 857.523438 L 560.148438 859.511719 L 561.910156 860.675781 C 563.109375 861.394531 564.355469 862.007812 565.648438 862.515625 L 567.625 863.191406 C 568.964844 863.585938 570.355469 863.875 571.789062 864.054688 L 573.980469 864.242188 C 575.464844 864.3125 576.992188 864.273438 578.570312 864.128906 L 576.761719 851.886719 L 577.589844 848.164062 L 577.902344 844.660156 L 577.707031 841.382812 L 576.996094 838.328125 L 575.773438 835.5 L 574.035156 832.890625 L 571.789062 830.503906 L 569.027344 828.339844 L 565.753906 826.398438 L 564.265625 825.964844 C 563.277344 825.734375 562.296875 825.625 561.328125 825.632812 C 560.359375 825.640625 559.398438 825.773438 558.449219 826.023438 C 556.546875 826.519531 554.6875 827.5 552.859375 828.960938 C 551.640625 830.167969 550.609375 831.363281 549.765625 832.542969 C 549.027344 833.4375 548.265625 834.890625 547.484375 836.910156 " fill-opacity="1" fill-rule="nonzero"/><path fill="#e0c3d4" d="M 545.101562 884.21875 L 545.566406 884.542969 C 546.820312 885.367188 548.148438 885.898438 549.546875 886.136719 L 551.566406 886.289062 C 552.9375 886.3125 554.359375 886.179688 555.835938 885.894531 L 558.089844 885.351562 C 559.617188 884.914062 561.199219 884.320312 562.828125 883.570312 C 564.460938 882.824219 566.148438 881.921875 567.882812 880.867188 L 570.527344 879.167969 L 572.179688 877.851562 C 573.238281 876.9375 574.207031 875.941406 575.085938 874.867188 L 576.339844 873.199219 C 577.128906 872.046875 577.832031 870.816406 578.449219 869.507812 L 579.304688 867.484375 C 579.828125 866.097656 580.265625 864.632812 580.617188 863.085938 L 568.402344 861.023438 L 565.113281 859.085938 L 561.878906 857.707031 L 558.699219 856.882812 L 555.570312 856.613281 L 552.5 856.902344 L 549.476562 857.746094 L 546.511719 859.144531 L 543.601562 861.097656 L 540.742188 863.609375 L 539.867188 864.890625 C 539.34375 865.757812 538.933594 866.652344 538.644531 867.578125 C 538.355469 868.5 538.179688 869.453125 538.125 870.433594 C 538.011719 872.394531 538.371094 874.46875 539.195312 876.652344 C 539.96875 878.183594 540.785156 879.535156 541.648438 880.703125 C 542.269531 881.679688 543.421875 882.851562 545.101562 884.21875 " fill-opacity="1" fill-rule="nonzero"/><path fill="#fef0af" d="M 587.816406 862.261719 L 587.691406 863.488281 C 587.476562 864.578125 587.113281 865.570312 586.609375 866.457031 C 586.355469 866.898438 586.066406 867.316406 585.742188 867.707031 C 584.863281 868.640625 584.292969 869.171875 584.027344 869.292969 C 583.589844 869.609375 583.136719 869.878906 582.671875 870.101562 C 581.472656 870.589844 580.738281 870.828125 580.460938 870.820312 C 579.433594 871.003906 578.347656 871.015625 577.199219 870.847656 C 576.652344 870.738281 576.128906 870.59375 575.636719 870.414062 C 575.355469 870.371094 574.671875 870.019531 573.582031 869.359375 C 572.746094 868.78125 572.015625 868.058594 571.386719 867.1875 C 569.988281 865.089844 569.457031 862.945312 569.789062 860.753906 C 569.9375 859.660156 570.246094 858.65625 570.714844 857.746094 C 570.949219 857.292969 571.222656 856.859375 571.535156 856.449219 C 571.648438 856.210938 572.203125 855.652344 573.199219 854.773438 C 574.847656 853.480469 576.816406 852.847656 579.097656 852.875 C 580.238281 852.945312 581.285156 853.175781 582.242188 853.566406 C 582.722656 853.757812 583.175781 853.992188 583.609375 854.265625 C 583.855469 854.351562 584.453125 854.851562 585.402344 855.765625 C 586.132812 856.550781 586.695312 857.414062 587.097656 858.355469 C 587.246094 858.566406 587.453125 859.316406 587.714844 860.609375 C 587.789062 861.140625 587.824219 861.691406 587.816406 862.261719 " fill-opacity="1" fill-rule="nonzero"/><path fill="#fff0ac" d="M 584.988281 869.628906 C 584.101562 869.628906 583.210938 869.601562 582.324219 869.546875 C 581.4375 869.492188 580.550781 869.410156 579.667969 869.304688 C 578.785156 869.195312 577.90625 869.058594 577.03125 868.898438 C 576.160156 868.734375 575.289062 868.546875 574.425781 868.328125 C 573.5625 868.113281 572.710938 867.871094 571.859375 867.605469 C 571.011719 867.335938 570.175781 867.042969 569.34375 866.722656 C 568.515625 866.402344 567.695312 866.058594 566.886719 865.6875 C 566.078125 865.316406 565.28125 864.921875 564.496094 864.503906 C 563.710938 864.085938 562.941406 863.640625 562.183594 863.175781 C 561.425781 862.707031 560.683594 862.21875 559.957031 861.707031 C 559.230469 861.195312 558.519531 860.664062 557.824219 860.105469 C 557.128906 859.550781 556.453125 858.976562 555.792969 858.378906 C 555.132812 857.78125 554.496094 857.164062 553.875 856.527344 C 553.253906 855.890625 552.652344 855.234375 552.070312 854.5625 C 551.488281 853.890625 550.929688 853.199219 550.390625 852.492188 C 549.851562 851.785156 549.335938 851.058594 548.839844 850.320312 C 548.347656 849.582031 547.875 848.828125 547.425781 848.058594 C 546.980469 847.289062 546.554688 846.507812 546.15625 845.714844 C 545.753906 844.921875 545.378906 844.113281 545.03125 843.296875 C 544.679688 842.480469 544.355469 841.652344 544.054688 840.816406 C 543.753906 839.976562 543.480469 839.132812 543.234375 838.277344 C 542.984375 837.425781 542.765625 836.5625 542.570312 835.695312 C 542.375 834.828125 542.207031 833.953125 542.066406 833.078125 C 541.921875 832.199219 541.808594 831.316406 541.722656 830.433594 C 541.636719 829.546875 541.574219 828.660156 541.542969 827.769531 C 541.507812 826.882812 541.503906 825.992188 541.527344 825.105469 C 541.546875 824.214844 541.597656 823.328125 541.671875 822.441406 C 541.75 821.554688 541.851562 820.671875 541.984375 819.792969 C 542.113281 818.914062 542.273438 818.039062 542.457031 817.167969 C 542.640625 816.296875 542.851562 815.433594 543.089844 814.578125 C 543.324219 813.71875 543.589844 812.871094 543.878906 812.03125 C 544.167969 811.1875 544.484375 810.359375 544.824219 809.535156 C 545.164062 808.714844 545.527344 807.90625 545.917969 807.105469 C 546.308594 806.304688 546.722656 805.519531 547.160156 804.746094 C 547.601562 803.972656 548.0625 803.210938 548.546875 802.46875 C 549.03125 801.722656 549.539062 800.992188 550.070312 800.277344 C 550.601562 799.5625 551.152344 798.867188 551.722656 798.183594 C 552.296875 797.503906 552.890625 796.84375 553.503906 796.199219 C 554.117188 795.554688 554.75 794.929688 555.402344 794.324219 C 556.054688 793.71875 556.722656 793.136719 557.410156 792.570312 C 558.097656 792.007812 558.800781 791.464844 559.523438 790.945312 C 560.242188 790.421875 560.980469 789.925781 561.730469 789.449219 C 562.484375 788.972656 563.25 788.523438 564.027344 788.09375 C 564.808594 787.664062 565.597656 787.261719 566.402344 786.878906 C 567.207031 786.5 568.023438 786.144531 568.847656 785.816406 C 569.675781 785.484375 570.507812 785.183594 571.355469 784.902344 C 572.199219 784.625 573.050781 784.371094 573.910156 784.144531 C 574.769531 783.917969 575.636719 783.71875 576.507812 783.546875 C 577.382812 783.375 578.257812 783.226562 579.140625 783.109375 C 580.019531 782.988281 580.90625 782.894531 581.792969 782.832031 C 582.679688 782.765625 583.566406 782.726562 584.457031 782.71875 C 585.347656 782.707031 586.234375 782.722656 587.125 782.769531 C 588.011719 782.8125 588.898438 782.882812 589.78125 782.980469 C 590.664062 783.082031 591.546875 783.207031 592.421875 783.359375 C 593.296875 783.511719 594.167969 783.691406 595.035156 783.898438 C 595.898438 784.101562 596.757812 784.335938 597.609375 784.59375 C 598.457031 784.851562 599.300781 785.136719 600.132812 785.445312 C 600.96875 785.757812 601.792969 786.09375 602.605469 786.453125 C 603.417969 786.816406 604.21875 787.199219 605.007812 787.609375 C 605.796875 788.019531 606.570312 788.453125 607.335938 788.914062 C 608.097656 789.371094 608.84375 789.851562 609.578125 790.355469 C 610.3125 790.859375 611.027344 791.382812 611.730469 791.929688 C 612.429688 792.480469 613.113281 793.046875 613.777344 793.636719 C 614.445312 794.226562 615.089844 794.835938 615.71875 795.464844 C 617.230469 796.976562 618.625 798.589844 619.898438 800.304688 C 621.171875 802.019531 622.3125 803.820312 623.324219 805.707031 C 624.332031 807.589844 625.195312 809.539062 625.914062 811.550781 C 626.636719 813.5625 627.207031 815.617188 627.621094 817.710938 C 628.039062 819.808594 628.300781 821.921875 628.40625 824.058594 C 628.511719 826.191406 628.460938 828.324219 628.25 830.449219 C 628.042969 832.578125 627.675781 834.675781 627.15625 836.75 C 626.636719 838.824219 625.96875 840.847656 625.152344 842.820312 C 624.332031 844.796875 623.375 846.699219 622.277344 848.53125 C 621.175781 850.363281 619.949219 852.105469 618.59375 853.757812 C 617.234375 855.410156 615.765625 856.953125 614.183594 858.386719 C 612.597656 859.824219 610.917969 861.132812 609.140625 862.320312 C 607.363281 863.507812 605.507812 864.554688 603.574219 865.46875 C 601.640625 866.382812 599.652344 867.148438 597.605469 867.765625 C 595.5625 868.386719 593.480469 868.851562 591.367188 869.164062 C 589.253906 869.472656 587.128906 869.628906 584.988281 869.628906 Z M 584.988281 792.289062 C 584.34375 792.289062 583.695312 792.304688 583.046875 792.339844 C 582.402344 792.375 581.757812 792.429688 581.113281 792.503906 C 580.46875 792.574219 579.828125 792.667969 579.1875 792.777344 C 578.550781 792.886719 577.914062 793.011719 577.285156 793.160156 C 576.652344 793.304688 576.027344 793.46875 575.40625 793.648438 C 574.785156 793.832031 574.167969 794.03125 573.558594 794.25 C 572.945312 794.464844 572.34375 794.699219 571.746094 794.953125 C 571.148438 795.203125 570.558594 795.472656 569.976562 795.757812 C 569.398438 796.042969 568.824219 796.34375 568.257812 796.660156 C 567.695312 796.980469 567.140625 797.3125 566.59375 797.664062 C 566.050781 798.015625 565.515625 798.378906 564.992188 798.761719 C 564.46875 799.140625 563.953125 799.535156 563.453125 799.945312 C 562.953125 800.355469 562.460938 800.78125 561.984375 801.21875 C 561.507812 801.65625 561.042969 802.109375 560.59375 802.574219 C 560.140625 803.035156 559.703125 803.515625 559.277344 804.003906 C 558.855469 804.492188 558.445312 804.996094 558.050781 805.507812 C 557.65625 806.023438 557.273438 806.546875 556.910156 807.082031 C 556.542969 807.617188 556.195312 808.160156 555.859375 808.714844 C 555.527344 809.269531 555.210938 809.835938 554.90625 810.410156 C 554.605469 810.980469 554.320312 811.5625 554.054688 812.152344 C 553.785156 812.742188 553.535156 813.339844 553.300781 813.945312 C 553.066406 814.546875 552.847656 815.15625 552.648438 815.773438 C 552.449219 816.390625 552.269531 817.011719 552.105469 817.640625 C 551.941406 818.265625 551.796875 818.898438 551.667969 819.53125 C 551.542969 820.167969 551.433594 820.804688 551.34375 821.445312 C 551.25 822.089844 551.179688 822.730469 551.125 823.378906 C 551.070312 824.023438 551.035156 824.667969 551.019531 825.316406 C 551.003906 825.964844 551.003906 826.613281 551.023438 827.257812 C 551.046875 827.90625 551.085938 828.554688 551.140625 829.199219 C 551.199219 829.84375 551.273438 830.488281 551.371094 831.128906 C 551.464844 831.769531 551.574219 832.40625 551.707031 833.039062 C 551.835938 833.675781 551.988281 834.304688 552.152344 834.929688 C 552.320312 835.558594 552.503906 836.179688 552.707031 836.792969 C 552.910156 837.410156 553.128906 838.019531 553.367188 838.621094 C 553.605469 839.222656 553.859375 839.820312 554.128906 840.40625 C 554.402344 840.996094 554.691406 841.574219 554.996094 842.144531 C 555.300781 842.71875 555.621094 843.28125 555.957031 843.832031 C 556.292969 844.386719 556.648438 844.929688 557.015625 845.464844 C 557.382812 845.996094 557.765625 846.519531 558.164062 847.027344 C 558.5625 847.539062 558.976562 848.039062 559.402344 848.527344 C 559.828125 849.015625 560.269531 849.488281 560.722656 849.953125 C 561.175781 850.414062 561.644531 850.863281 562.121094 851.296875 C 562.601562 851.734375 563.09375 852.15625 563.597656 852.5625 C 564.101562 852.96875 564.617188 853.363281 565.144531 853.738281 C 565.667969 854.117188 566.207031 854.480469 566.753906 854.828125 C 567.300781 855.171875 567.855469 855.503906 568.421875 855.820312 C 568.988281 856.132812 569.5625 856.433594 570.144531 856.714844 C 570.730469 856.996094 571.320312 857.261719 571.917969 857.511719 C 572.515625 857.757812 573.121094 857.992188 573.734375 858.203125 C 574.34375 858.417969 574.960938 858.613281 575.585938 858.792969 C 576.207031 858.96875 576.835938 859.128906 577.464844 859.273438 C 578.097656 859.414062 578.734375 859.539062 579.371094 859.644531 C 580.011719 859.75 580.652344 859.839844 581.296875 859.90625 C 581.941406 859.976562 582.585938 860.027344 583.234375 860.058594 C 583.882812 860.089844 584.527344 860.105469 585.175781 860.101562 C 585.824219 860.09375 586.472656 860.070312 587.117188 860.027344 C 587.765625 859.988281 588.410156 859.925781 589.050781 859.847656 C 589.695312 859.769531 590.335938 859.671875 590.972656 859.554688 C 591.609375 859.4375 592.242188 859.304688 592.871094 859.152344 C 593.503906 859 594.128906 858.832031 594.746094 858.644531 C 595.367188 858.457031 595.980469 858.25 596.589844 858.027344 C 597.199219 857.804688 597.800781 857.5625 598.394531 857.304688 C 598.988281 857.046875 599.574219 856.773438 600.152344 856.484375 C 600.730469 856.191406 601.300781 855.882812 601.863281 855.5625 C 602.421875 855.238281 602.976562 854.898438 603.515625 854.542969 C 604.058594 854.1875 604.589844 853.816406 605.109375 853.429688 C 605.628906 853.042969 606.136719 852.644531 606.636719 852.230469 C 607.132812 851.8125 607.617188 851.386719 608.089844 850.941406 C 608.5625 850.5 609.023438 850.042969 609.46875 849.574219 C 609.917969 849.105469 610.351562 848.625 610.769531 848.128906 C 611.1875 847.636719 611.59375 847.128906 611.984375 846.613281 C 612.371094 846.09375 612.746094 845.566406 613.109375 845.027344 C 613.46875 844.488281 613.8125 843.941406 614.140625 843.382812 C 614.46875 842.824219 614.78125 842.257812 615.078125 841.679688 C 615.371094 841.105469 615.652344 840.519531 615.914062 839.929688 C 616.175781 839.335938 616.421875 838.738281 616.648438 838.128906 C 616.878906 837.523438 617.085938 836.910156 617.28125 836.292969 C 617.472656 835.675781 617.648438 835.050781 617.804688 834.421875 C 617.964844 833.792969 618.101562 833.164062 618.222656 832.527344 C 618.34375 831.890625 618.445312 831.25 618.53125 830.609375 C 618.617188 829.964844 618.679688 829.320312 618.730469 828.675781 C 618.777344 828.03125 618.804688 827.382812 618.816406 826.734375 C 618.824219 826.085938 618.816406 825.441406 618.789062 824.792969 C 618.765625 824.144531 618.71875 823.5 618.65625 822.855469 C 618.589844 822.210938 618.507812 821.566406 618.40625 820.929688 C 618.308594 820.289062 618.1875 819.652344 618.050781 819.019531 C 617.914062 818.386719 617.757812 817.757812 617.585938 817.132812 C 617.414062 816.507812 617.222656 815.890625 617.011719 815.277344 C 616.804688 814.664062 616.578125 814.054688 616.335938 813.457031 C 616.089844 812.855469 615.832031 812.261719 615.554688 811.675781 C 615.277344 811.089844 614.984375 810.515625 614.671875 809.945312 C 614.363281 809.378906 614.035156 808.820312 613.691406 808.269531 C 613.351562 807.71875 612.992188 807.179688 612.617188 806.648438 C 612.246094 806.121094 611.855469 805.601562 611.453125 805.09375 C 611.050781 804.589844 610.632812 804.09375 610.203125 803.609375 C 609.769531 803.125 609.324219 802.65625 608.867188 802.199219 C 607.300781 800.628906 605.59375 799.230469 603.75 797.996094 C 601.90625 796.761719 599.960938 795.722656 597.914062 794.871094 C 595.863281 794.023438 593.753906 793.378906 591.578125 792.945312 C 589.402344 792.511719 587.207031 792.292969 584.988281 792.289062 Z M 584.988281 792.289062 " fill-opacity="1" fill-rule="nonzero"/><g clip-path="url(#6a8ab35ead)"><path fill="#fff0ac" d="M 646.59375 892.574219 C 645.277344 892.566406 644.15625 892.097656 643.226562 891.164062 L 608.960938 856.925781 C 608.742188 856.703125 608.542969 856.460938 608.367188 856.199219 C 608.195312 855.941406 608.046875 855.664062 607.925781 855.375 C 607.808594 855.085938 607.714844 854.785156 607.65625 854.480469 C 607.59375 854.171875 607.5625 853.859375 607.5625 853.546875 C 607.5625 853.234375 607.59375 852.921875 607.65625 852.613281 C 607.714844 852.308594 607.808594 852.007812 607.925781 851.71875 C 608.046875 851.429688 608.195312 851.152344 608.367188 850.890625 C 608.542969 850.632812 608.742188 850.390625 608.960938 850.167969 C 609.183594 849.945312 609.425781 849.746094 609.6875 849.574219 C 609.949219 849.398438 610.222656 849.253906 610.511719 849.132812 C 610.800781 849.011719 611.101562 848.921875 611.410156 848.859375 C 611.71875 848.800781 612.027344 848.769531 612.339844 848.769531 C 612.65625 848.769531 612.964844 848.800781 613.273438 848.859375 C 613.582031 848.921875 613.878906 849.011719 614.167969 849.132812 C 614.460938 849.253906 614.734375 849.398438 614.996094 849.574219 C 615.257812 849.746094 615.5 849.945312 615.71875 850.167969 L 649.960938 884.433594 C 650.292969 884.765625 650.566406 885.140625 650.789062 885.554688 C 651.011719 885.972656 651.167969 886.410156 651.257812 886.871094 C 651.347656 887.335938 651.371094 887.800781 651.324219 888.269531 C 651.277344 888.734375 651.164062 889.1875 650.984375 889.625 C 650.804688 890.058594 650.566406 890.457031 650.269531 890.824219 C 649.972656 891.1875 649.625 891.5 649.234375 891.761719 C 648.84375 892.023438 648.425781 892.226562 647.972656 892.363281 C 647.523438 892.5 647.0625 892.570312 646.59375 892.574219 Z M 646.59375 892.574219 " fill-opacity="1" fill-rule="nonzero"/></g></svg>