<svg xmlns="http://www.w3.org/2000/svg" xmlns:xlink="http://www.w3.org/1999/xlink" width="1587" zoomAndPan="magnify" viewBox="0 0 1190.25 1683.749949" height="2245" preserveAspectRatio="xMidYMid meet" version="1.0"><defs><clipPath id="45b763d0f3"><path d="M 537.925781 784.789062 L 651.851562 784.789062 L 651.851562 898.71875 L 537.925781 898.71875 Z M 537.925781 784.789062 " clip-rule="nonzero"/></clipPath></defs><g clip-path="url(#45b763d0f3)"><path fill="#fff0ac" d="M 544.234375 838.214844 C 544.945312 827.949219 548.695312 818.304688 555.132812 810.203125 C 559.285156 812.003906 563.714844 813.527344 568.339844 814.730469 C 566.214844 822.128906 565.003906 830.019531 564.734375 838.214844 Z M 591.351562 871.683594 L 591.351562 892.011719 C 585.523438 890.054688 580.101562 883.34375 576.21875 873.257812 C 580.945312 872.378906 586.023438 871.859375 591.351562 871.683594 Z M 578.714844 889.90625 C 571.519531 887.484375 564.953125 883.464844 559.46875 878.109375 C 562.78125 876.796875 566.386719 875.640625 570.226562 874.667969 C 572.511719 880.773438 575.40625 885.953125 578.714844 889.90625 Z M 570.847656 845.304688 L 591.351562 845.304688 L 591.351562 865.503906 C 585.492188 865.691406 579.757812 866.335938 574.265625 867.417969 C 572.296875 860.574219 571.125 852.976562 570.847656 845.304688 Z M 591.351562 818.011719 L 591.351562 838.214844 L 570.847656 838.214844 C 571.128906 830.535156 572.296875 822.941406 574.265625 816.105469 C 579.78125 817.1875 585.519531 817.828125 591.351562 818.011719 Z M 559.46875 805.40625 C 564.957031 800.058594 571.523438 796.039062 578.714844 793.613281 C 575.40625 797.558594 572.515625 802.742188 570.226562 808.851562 C 566.390625 807.878906 562.78125 806.71875 559.46875 805.40625 Z M 576.21875 810.261719 C 580.097656 800.164062 585.527344 793.457031 591.351562 791.515625 L 591.351562 811.839844 C 586.015625 811.660156 580.941406 811.132812 576.21875 810.261719 Z M 568.339844 868.789062 C 563.722656 869.992188 559.289062 871.511719 555.128906 873.3125 C 548.695312 865.222656 544.941406 855.578125 544.230469 845.304688 L 564.734375 845.304688 C 565 853.496094 566.210938 861.382812 568.339844 868.789062 Z M 645.558594 845.28125 C 644.84375 855.574219 641.09375 865.226562 634.65625 873.3125 C 630.496094 871.511719 626.058594 869.996094 621.449219 868.792969 C 623.570312 861.394531 624.78125 853.503906 625.054688 845.28125 Z M 598.4375 811.839844 L 598.4375 791.515625 C 604.269531 793.457031 609.6875 800.167969 613.570312 810.261719 C 608.851562 811.132812 603.773438 811.660156 598.4375 811.839844 Z M 619.566406 808.851562 C 617.28125 802.746094 614.386719 797.558594 611.074219 793.613281 C 618.265625 796.035156 624.835938 800.054688 630.320312 805.40625 C 627.003906 806.71875 623.398438 807.878906 619.566406 808.851562 Z M 618.9375 838.214844 L 598.4375 838.214844 L 598.4375 818.015625 C 604.289062 817.828125 610.023438 817.183594 615.519531 816.105469 C 617.488281 822.933594 618.664062 830.53125 618.9375 838.214844 Z M 625.054688 838.214844 C 624.785156 830.023438 623.574219 822.136719 621.449219 814.734375 C 626.066406 813.53125 630.496094 812.007812 634.660156 810.207031 C 641.09375 818.300781 644.84375 827.941406 645.554688 838.21875 L 625.054688 838.21875 Z M 598.4375 865.507812 L 598.4375 845.28125 L 618.9375 845.28125 C 618.664062 852.984375 617.488281 860.585938 615.519531 867.414062 C 610.027344 866.332031 604.289062 865.6875 598.4375 865.507812 Z M 630.320312 878.109375 C 624.835938 883.460938 618.265625 887.480469 611.070312 889.90625 C 614.382812 885.953125 617.28125 880.773438 619.566406 874.667969 C 623.40625 875.644531 627.011719 876.796875 630.320312 878.109375 Z M 613.566406 873.257812 C 609.691406 883.347656 604.269531 890.050781 598.4375 892.011719 L 598.4375 871.683594 C 603.75 871.859375 608.824219 872.378906 613.566406 873.257812 Z M 594.894531 784.789062 C 563.484375 784.789062 537.925781 810.347656 537.925781 841.761719 C 537.925781 873.171875 563.484375 898.730469 594.894531 898.730469 C 626.304688 898.730469 651.863281 873.171875 651.863281 841.761719 C 651.863281 810.347656 626.304688 784.789062 594.894531 784.789062 Z M 594.894531 784.789062 " fill-opacity="1" fill-rule="evenodd"/></g></svg>