<svg xmlns="http://www.w3.org/2000/svg" xmlns:xlink="http://www.w3.org/1999/xlink" width="1587" zoomAndPan="magnify" viewBox="0 0 1190.25 1683.749949" height="2245" preserveAspectRatio="xMidYMid meet" version="1.0"><defs><clipPath id="3d25fd1802"><path d="M 564 779.574219 L 626 779.574219 L 626 845 L 564 845 Z M 564 779.574219 " clip-rule="nonzero"/></clipPath><clipPath id="81021a731a"><path d="M 538.226562 844 L 651.40625 844 L 651.40625 903.996094 L 538.226562 903.996094 Z M 538.226562 844 " clip-rule="nonzero"/></clipPath></defs><g clip-path="url(#3d25fd1802)"><path fill="#fef0af" d="M 594.898438 844.085938 C 611.550781 844.085938 625.09375 826.417969 625.09375 809.769531 C 625.09375 793.121094 611.550781 779.574219 594.898438 779.574219 C 578.25 779.574219 564.707031 793.121094 564.707031 809.769531 C 564.707031 826.414062 578.25 844.085938 594.898438 844.085938 Z M 594.898438 844.085938 " fill-opacity="1" fill-rule="nonzero"/></g><g clip-path="url(#81021a731a)"><path fill="#fef0af" d="M 617.566406 844.398438 C 611.710938 848.859375 604.402344 851.515625 596.488281 851.515625 L 593.308594 851.515625 C 585.394531 851.515625 578.085938 848.859375 572.230469 844.398438 C 553.109375 847.488281 538.503906 864.0625 538.503906 884.058594 C 538.503906 895.039062 563.753906 903.949219 594.898438 903.949219 C 626.042969 903.949219 651.292969 895.039062 651.292969 884.058594 C 651.292969 864.0625 636.6875 847.488281 617.566406 844.398438 Z M 617.566406 844.398438 " fill-opacity="1" fill-rule="nonzero"/></g></svg>